<svg width="96" height="73" viewBox="0 0 96 73" fill="none" xmlns="http://www.w3.org/2000/svg">
<path d="M63.378 22.818C63.378 19.76 60.897 17.276 57.835 17.276C54.774 17.276 52.293 19.761 52.293 22.818C52.293 25.882 54.774 28.36 57.835 28.36C60.896 28.36 63.378 25.882 63.378 22.818Z" fill="#DBDBDB"/>
<path d="M19.279 17.275C16.217 17.275 13.736 19.76 13.736 22.817C13.736 25.881 16.217 28.359 19.279 28.359C22.34 28.359 24.821 25.881 24.821 22.817C24.821 19.76 22.34 17.275 19.279 17.275Z" fill="#DBDBDB"/>
<path d="M38.556 17.275C35.495 17.275 33.014 19.76 33.014 22.817C33.014 25.881 35.495 28.359 38.556 28.359C41.618 28.359 44.099 25.881 44.099 22.817C44.099 19.76 41.618 17.275 38.556 17.275Z" fill="#DBDBDB"/>
<path d="M79.8501 30.687C79.4691 31.967 78.9881 33.203 78.4261 34.4C85.5911 34.618 91.3671 40.484 91.3671 47.706C91.3671 53.444 87.7071 58.527 82.2551 60.353L81.826 60.5L75.6091 66.75L69.9131 61.057H59.0541C52.4691 61.057 47.0171 56.253 45.9361 49.965H42.0811C43.2031 58.38 50.3431 64.912 59.0551 64.912H68.3181L75.6191 72.209L83.9251 63.855C90.7061 61.381 95.2251 54.947 95.2251 47.706C95.2231 38.842 88.4681 31.614 79.8501 30.687Z" fill="white"/>
<path d="M77.113 23.051C77.113 10.343 66.773 0 54.062 0H23.051C10.34 0 0 10.343 0 23.051C0 32.965 6.322 41.745 15.731 44.901L16.16 45.047L26.993 55.929L36.808 46.11H54.062C66.773 46.11 77.113 35.77 77.113 23.051ZM19.279 28.36C16.217 28.36 13.736 25.882 13.736 22.818C13.736 19.76 16.217 17.276 19.279 17.276C22.34 17.276 24.821 19.761 24.821 22.818C24.821 25.882 22.34 28.36 19.279 28.36ZM38.556 28.36C35.495 28.36 33.014 25.882 33.014 22.818C33.014 19.76 35.495 17.276 38.556 17.276C41.618 17.276 44.099 19.761 44.099 22.818C44.099 25.882 41.618 28.36 38.556 28.36ZM52.293 22.818C52.293 19.76 54.774 17.276 57.835 17.276C60.897 17.276 63.378 19.761 63.378 22.818C63.378 25.882 60.897 28.36 57.835 28.36C54.774 28.36 52.293 25.882 52.293 22.818Z" fill="white"/>
</svg>
