<svg width="56" height="66" viewBox="0 0 56 66" fill="none" xmlns="http://www.w3.org/2000/svg">
<path d="M41 0H5C3.67406 0.000479728 2.40257 0.527418 1.465 1.465C0.527418 2.40257 0.000479728 3.67406 0 5V53C0.000479728 54.3259 0.527418 55.5974 1.465 56.535C2.40257 57.4726 3.67406 57.9995 5 58H41C42.3259 57.9995 43.5974 57.4726 44.535 56.535C45.4726 55.5974 45.9995 54.3259 46 53V5C45.9995 3.67406 45.4726 2.40257 44.535 1.465C43.5974 0.527418 42.3259 0.000479728 41 0ZM6.08 38.38C6.00373 38.1978 5.98297 37.9972 6.02033 37.8033C6.05769 37.6094 6.15151 37.4308 6.29 37.29L9.42 34.17C7.32632 31.7548 6.12207 28.6959 6.00738 25.5016C5.89268 22.3073 6.87443 19.1699 8.78949 16.6107C10.7046 14.0516 13.4376 12.2248 16.5346 11.4338C19.6316 10.6428 22.9059 10.9354 25.8136 12.2628C28.7213 13.5902 31.0873 15.8726 32.5183 18.7307C33.9494 21.5888 34.3595 24.8506 33.6803 27.9739C33.0012 31.0973 31.2738 33.8943 28.7851 35.9001C26.2964 37.9059 23.1964 38.9998 20 39H7C6.80218 39.0007 6.60871 38.942 6.44467 38.8315C6.28062 38.7209 6.15358 38.5636 6.08 38.38ZM39.72 44.7C39.5291 44.8912 39.2702 44.9991 39 45C38.9019 45.0015 38.8041 44.988 38.71 44.96L33.09 43.27C30.684 44.6241 27.9197 45.2056 25.1721 44.9354C22.4244 44.6653 19.8263 43.5567 17.73 41.76C17.5304 41.5871 17.4072 41.3421 17.3875 41.0787C17.3678 40.8153 17.4531 40.5548 17.6248 40.3541C17.7965 40.1534 18.0406 40.0287 18.3039 40.0073C18.5671 39.9859 18.8282 40.0696 19.03 40.24C20.8642 41.8137 23.1492 42.7666 25.558 42.9624C27.9668 43.1582 30.3758 42.5868 32.44 41.33C32.5613 41.2597 32.6956 41.2146 32.8348 41.1974C32.974 41.1802 33.1152 41.1913 33.25 41.23L37.44 42.49L36.11 38.49C36.0636 38.3496 36.0485 38.2008 36.0658 38.0539C36.0831 37.9071 36.1323 37.7658 36.21 37.64C37.5395 35.548 38.1558 33.0817 37.9665 30.6103C37.7772 28.1388 36.7926 25.7951 35.16 23.93C35.0733 23.8315 35.0069 23.7169 34.9645 23.5927C34.9221 23.4686 34.9046 23.3373 34.913 23.2064C34.9213 23.0754 34.9554 22.9474 35.0132 22.8297C35.0711 22.7119 35.1515 22.6067 35.25 22.52C35.3485 22.4333 35.4631 22.3669 35.5873 22.3245C35.7114 22.2821 35.8427 22.2646 35.9736 22.273C36.1046 22.2813 36.2326 22.3154 36.3503 22.3732C36.4681 22.4311 36.5733 22.5115 36.66 22.61C38.5247 24.7354 39.6722 27.3944 39.9397 30.2091C40.2072 33.0239 39.581 35.8514 38.15 38.29L39.95 43.68C40.0088 43.8548 40.0184 44.0423 39.9778 44.2222C39.9373 44.4021 39.8481 44.5674 39.72 44.7Z" fill="white"/>
<path d="M28 23V27C27.9992 27.265 27.8936 27.5189 27.7062 27.7062C27.5189 27.8936 27.265 27.9992 27 28H23V32C22.9992 32.265 22.8936 32.5189 22.7062 32.7062C22.5189 32.8936 22.265 32.9992 22 33H18C17.735 32.9992 17.4811 32.8936 17.2938 32.7062C17.1064 32.5189 17.0008 32.265 17 32V28H13C12.735 27.9992 12.4811 27.8936 12.2938 27.7062C12.1064 27.5189 12.0008 27.265 12 27V23C12.0008 22.735 12.1064 22.4811 12.2938 22.2938C12.4811 22.1064 12.735 22.0008 13 22H17V18C17.0008 17.735 17.1064 17.4811 17.2938 17.2938C17.4811 17.1064 17.735 17.0008 18 17H22C22.265 17.0008 22.5189 17.1064 22.7062 17.2938C22.8936 17.4811 22.9992 17.735 23 18V22H27C27.265 22.0008 27.5189 22.1064 27.7062 22.2938C27.8936 22.4811 27.9992 22.735 28 23Z" fill="white"/>
<path d="M56 13V61C55.9995 62.3259 55.4726 63.5974 54.535 64.535C53.5974 65.4726 52.3259 65.9995 51 66H15C13.6741 65.9995 12.4026 65.4726 11.465 64.535C10.5274 63.5974 10.0005 62.3259 10 61V60C10.0008 59.735 10.1064 59.4811 10.2938 59.2938C10.4811 59.1064 10.735 59.0008 11 59H41C42.5909 58.9987 44.1163 58.3662 45.2413 57.2413C46.3662 56.1163 46.9987 54.5909 47 53V9C47.0008 8.73503 47.1064 8.48113 47.2938 8.29377C47.4811 8.1064 47.735 8.00079 48 8H51C52.3259 8.00048 53.5974 8.52742 54.535 9.465C55.4726 10.4026 55.9995 11.6741 56 13Z" fill="white"/>
</svg>
