<svg width="42" height="42" viewBox="0 0 42 42" fill="none" xmlns="http://www.w3.org/2000/svg">
<path d="M21 5.25V15.75C21 18.645 18.645 21 15.75 21H5.25C2.35498 21 0 18.645 0 15.75V5.25C0 2.35498 2.35498 0 5.25 0H15.75C18.645 0 21 2.35498 21 5.25ZM15.75 22.75H5.25C2.35498 22.75 0 25.105 0 28V36.75C0 39.645 2.35498 42 5.25 42H15.75C18.645 42 21 39.645 21 36.75V28C21 25.105 18.645 22.75 15.75 22.75ZM36.75 0H28C25.105 0 22.75 2.35498 22.75 5.25V24.5C22.75 27.395 25.105 29.75 28 29.75H36.75C39.645 29.75 42 27.395 42 24.5V5.25C42 2.35498 39.645 0 36.75 0ZM38.5 30.8438H26.25C24.3197 30.8438 22.75 32.4135 22.75 34.3438V38.5C22.75 40.4303 24.3197 42 26.25 42H38.5C40.4303 42 42 40.4303 42 38.5V34.3438C42 32.4135 40.4303 30.8438 38.5 30.8438Z" fill="white"/>
</svg>
