<svg width="47" height="45" viewBox="0 0 47 45" fill="none" xmlns="http://www.w3.org/2000/svg">
<path d="M39.4305 10.0926H33.2463V4.94737C33.2463 2.22632 31.02 0 28.2989 0H18.7011C15.98 0 13.7537 2.22632 13.7537 4.94737V10.0432H7.56947C3.41368 10.0432 0 13.4568 0 17.6126V37.4021C0 41.5579 3.41368 44.9716 7.56947 44.9716H39.4305C43.5863 44.9716 47 41.5579 47 37.4021V17.6126C47 13.4568 43.5863 10.0926 39.4305 10.0926ZM18.4042 4.94737C18.4042 4.79895 18.5526 4.65053 18.7011 4.65053H28.2495C28.3979 4.65053 28.5463 4.79895 28.5463 4.94737V10.0432H18.4042V4.94737ZM32.3558 30.6242H26.6168V36.4126H20.3832V30.6242H14.6442V24.44H20.4326V18.6516H26.6168V24.44H32.4053V30.6242H32.3558Z" fill="white"/>
</svg>
