<svg width="61" height="71" viewBox="0 0 61 71" fill="none" xmlns="http://www.w3.org/2000/svg">
<path d="M20.8856 4.79763H15.7879V4.80153H15.784V4.80544H15.7801C13.1551 4.80544 11.0262 6.91484 10.9871 9.53594V24.7899C10.9871 25.6767 11.7019 26.3954 12.5887 26.3954C13.4715 26.3954 14.1903 25.6767 14.1903 24.7899V9.57494C14.1942 8.68822 14.913 8.00074 15.7958 8.00074H20.8856C21.7684 8.00074 22.4872 7.2859 22.4872 6.39914C22.4872 5.51633 21.7685 4.79763 20.8856 4.79763ZM32.2566 33.6566C33.1433 33.6566 33.8621 34.3754 33.8621 35.2582V35.2621C33.8621 36.1449 33.1434 36.8637 32.2566 36.8637C31.3738 36.8637 30.655 36.145 30.655 35.2621C30.655 34.3754 31.3738 33.6605 32.2566 33.6605V33.6566ZM5.88561 27.9105C5.39733 27.9105 4.91295 28.1332 4.60041 28.559L0.600405 33.977C0.0808753 34.641 -0.262875 35.5004 0.260565 36.2075L4.50666 41.9614C4.81916 42.3871 5.30354 42.6098 5.79186 42.6098C6.12389 42.6098 6.45593 42.5082 6.74109 42.2973C7.44812 41.7739 7.60046 40.7739 7.07702 40.0668L4.70983 36.8598L21.2138 36.8559C22.0966 36.8559 22.8115 36.1411 22.8115 35.2621C22.8115 34.3793 22.0967 33.6644 21.2138 33.6644H4.80383L7.17102 30.4574C7.69446 29.7465 7.54212 28.7465 6.83509 28.223C6.54993 28.0121 6.22181 27.9105 5.89368 27.9105L5.88561 27.9105ZM58.7956 7.80553V7.80943H58.7917C57.9089 7.80943 57.194 8.52428 57.194 9.40714V61.3951C57.194 62.2819 57.9127 62.9967 58.7956 62.9967C59.6823 62.9967 60.3972 62.2819 60.3972 61.3951V9.40714C60.3972 8.52433 59.6824 7.80553 58.7956 7.80553ZM12.5886 43.3795V43.3834H12.5847C11.7019 43.3834 10.987 44.0983 10.987 44.9811V53.3405V60.985C11.0261 63.6061 13.1589 65.7233 15.7878 65.7233H20.8855C21.7683 65.7233 22.4871 65.0046 22.4871 64.1217C22.4871 63.235 21.7683 62.5201 20.8855 62.5201H15.7957C14.9129 62.5201 14.1941 61.8326 14.1902 60.9459V44.9809C14.1902 44.0981 13.4715 43.3795 12.5886 43.3795ZM29.5846 0.000528336V0.00834084H29.5807V0.00443459C26.9245 0.00443459 24.776 2.15673 24.776 4.81303V65.711C24.776 68.3672 26.9283 70.5196 29.5846 70.5196C29.983 70.5196 30.3737 70.4689 30.7448 70.379L53.8968 64.1759C54.5999 64.004 55.1234 63.3712 55.1234 62.6173V7.90631C55.1234 7.17193 54.6351 6.55471 53.9632 6.36331L53.9593 6.36722L30.7443 0.14062C30.3732 0.0507762 29.9831 0.000528336 29.5846 0.000528336Z" fill="white"/>
</svg>
