<svg width="78" height="78" viewBox="0 0 78 78" fill="none" xmlns="http://www.w3.org/2000/svg">
<path d="M39 34.6C43.8601 34.6 47.7999 30.6601 47.7999 25.8C47.7999 20.9399 43.8601 17 39 17C34.1398 17 30.2 20.9399 30.2 25.8C30.2 30.6601 34.1398 34.6 39 34.6Z" fill="white"/>
<path d="M39 0C17.5 0 0 17.5 0 39C0 60.5 17.5 78 39 78C60.5 78 78 60.5 78 39C78 17.5 60.5 0 39 0ZM57.8 62C57.8 51.4 49 42.1 39 42.1C29 42.1 20.2 51.4 20.2 62H16.2C16.2 50 25.2 39.7 36.4 38.3C30.6 37.1 26.3 31.9 26.3 25.8C26.2 18.7 32 13 39 13C46 13 51.8 18.7 51.8 25.8C51.8 31.9 47.5 37.1 41.7 38.3C52.8 39.7 61.8 50 61.8 62H57.8Z" fill="white"/>
</svg>
