<svg width="93" height="93" viewBox="0 0 93 93" fill="none" xmlns="http://www.w3.org/2000/svg">
<path fill-rule="evenodd" clip-rule="evenodd" d="M75.761 87.258L87.113 76.41C87.597 75.947 87.27 75.131 86.6 75.131H80.632C77.262 75.131 74.506 77.887 74.506 81.258V86.721C74.506 87.375 75.289 87.709 75.761 87.258ZM91.291 30.845C91.7 30.845 92.033 31.178 92.033 31.587L92.028 68.278C92.028 68.679 91.686 68.996 91.286 68.996H80.633C73.875 68.996 68.371 74.501 68.371 81.259V91.281C68.371 91.679 68.057 92.022 67.659 92.022L8.81 92.031C3.963 92.031 0.00199986 88.071 0.00199986 83.224V31.587C0.00199986 31.178 0.336 30.845 0.745 30.845H91.291ZM41.104 44.048C41.097 44.055 41.092 44.06 41.084 44.066C38.3 46.762 38.3 51.2 41.084 53.895C41.092 53.902 41.097 53.907 41.104 53.914C43.788 56.698 48.249 56.698 50.933 53.914L50.952 53.895C53.737 51.2 53.737 46.762 50.952 44.066C50.945 44.059 50.94 44.054 50.933 44.048C48.248 41.264 43.789 41.265 41.104 44.048ZM15.674 44.048C15.667 44.055 15.661 44.06 15.654 44.066C12.866 46.765 12.873 51.213 15.654 53.895C15.661 53.901 15.667 53.907 15.674 53.914C18.358 56.698 22.818 56.698 25.502 53.914C25.508 53.907 25.514 53.902 25.52 53.895C28.305 51.2 28.305 46.762 25.52 44.066C25.513 44.059 25.507 44.054 25.502 44.048C22.817 41.264 18.358 41.265 15.674 44.048ZM66.534 44.048C66.528 44.055 66.522 44.06 66.515 44.066C63.731 46.762 63.731 51.2 66.515 53.895C66.522 53.902 66.528 53.907 66.534 53.914C69.219 56.698 73.678 56.698 76.363 53.914C76.37 53.907 76.375 53.901 76.382 53.895C79.164 51.212 79.17 46.765 76.382 44.066C76.375 44.059 76.37 44.054 76.363 44.048C73.678 41.264 69.22 41.265 66.534 44.048ZM41.104 68.961C41.097 68.968 41.092 68.974 41.084 68.98C38.3 71.676 38.3 76.114 41.084 78.809C41.092 78.815 41.097 78.821 41.104 78.828C43.788 81.612 48.249 81.612 50.933 78.828C50.94 78.821 50.945 78.815 50.952 78.809C53.737 76.114 53.737 71.676 50.952 68.98C50.945 68.974 50.94 68.968 50.933 68.961C48.248 66.177 43.789 66.178 41.104 68.961ZM15.674 68.961C15.667 68.968 15.661 68.974 15.654 68.98C12.875 71.651 12.866 76.12 15.654 78.809C15.661 78.815 15.667 78.821 15.674 78.828C18.358 81.611 22.818 81.612 25.502 78.828C25.508 78.821 25.514 78.815 25.52 78.809C28.305 76.114 28.305 71.676 25.52 68.98C25.513 68.974 25.507 68.968 25.502 68.961C22.817 66.177 18.358 66.178 15.674 68.961ZM83.226 7.426H76.641C76.232 7.426 75.899 7.759 75.899 8.169V12.778C75.899 16.887 72.565 20.222 68.456 20.222C64.347 20.222 61.012 16.888 61.012 12.778V8.169C61.012 7.759 60.679 7.426 60.27 7.426H31.765C31.356 7.426 31.022 7.759 31.022 8.169V12.778C31.022 16.887 27.688 20.222 23.578 20.222C19.468 20.222 16.135 16.888 16.135 12.778V8.169C16.135 7.759 15.801 7.426 15.392 7.426H8.808C3.961 7.426 0 11.386 0 16.234V23.967C0 24.376 0.334 24.709 0.743 24.709H91.29C91.699 24.709 92.032 24.376 92.032 23.967V16.234C92.032 11.386 88.072 7.426 83.226 7.426ZM65.75 2.707C65.75 1.212 66.962 0 68.456 0C69.95 0 71.163 1.211 71.163 2.707V12.778C71.163 14.273 69.951 15.485 68.456 15.485C66.961 15.485 65.75 14.273 65.75 12.778V2.707ZM20.872 2.707C20.872 1.212 22.084 0 23.579 0C25.074 0 26.286 1.211 26.286 2.707V12.778C26.286 14.273 25.075 15.485 23.579 15.485C22.083 15.485 20.872 14.273 20.872 12.778V2.707Z" fill="white"/>
</svg>
